#!OML:ASF I:\golf\golf\golf 2\Subject 1\2002-09-07\Subject1.ASF
:FULLY-SPECIFIED
:DEGREES
232
root -7.46935 17.8309 1.13372 -8.49881 75.3656 -28.721
lowerback 7.07627 -9.43709 -11.4421
upperback 3.78646 -13.1698 3.10643
thorax 3.45629 -7.01297 9.72629
lowerneck -9.8737 15.0082 3.29872
upperneck 16.1663 22.8188 -13.4136
head 8.65652 9.93539 -2.25649
rclavicle 3.18055e-014 -5.725e-014
rhumerus 17.3475 -18.2393 -75.6009
rradius 91.5826
rwrist -22.5073
rhand -63.0035 29.8791
rfingers 7.12502
rthumb -35.0063 3.32449
lclavicle 3.18055e-014 -5.725e-014
lhumerus 88.1227 -54.7425 59.7287
lradius 24.1149
lwrist -4.25508
lhand -16.5617 10.5766
lfingers 7.12502
lthumb -170.342 -139.665
rfemur -39.1284 0.809503 20.1969
rtibia 32.4816
rfoot -8.40955 1.47291
rtoes -6.01518
lfemur -31.6664 16.5094 -5.90811
ltibia 30.5731
lfoot -10.3583 2.97362
ltoes -15.0101
233
root -7.47064 17.8401 1.04566 -11.1722 77.4574 -31.4466
lowerback 6.92739 -9.51387 -11.2843
upperback 3.99205 -13.2442 3.5927
thorax 3.87151 -7.09927 10.0987
lowerneck -10.0352 14.4426 3.57448
upperneck 16.421 22.1191 -13.7514
head 8.78478 9.57707 -2.48026
rclavicle 2.8625e-014 -2.70347e-014
rhumerus 16.4352 -17.8291 -76.2858
rradius 90.7198
rwrist -23.5337
rhand -63.4657 29.3177
rfingers 7.12502
rthumb -35.4446 2.86666
lclavicle 2.8625e-014 -2.70347e-014
lhumerus 85.7072 -55.0961 61.6312
lradius 23.4587
lwrist -4.6597
lhand -16.2206 11.2541
lfingers 7.12502
lthumb -170.013 -139.003
rfemur -38.9461 0.127396 19.4448
rtibia 32.5356
rfoot -8.38112 -0.17397
rtoes -7.66138
lfemur -32.6276 15.4791 -6.60015
ltibia 30.4973
lfoot -10.1637 1.84936
ltoes -16.0467
234
root -7.47151 17.8504 0.95711 -15.7279 79.5021 -36.0422
lowerback 6.80286 -9.53965 -10.8621
upperback 4.17907 -13.2407 4.11838
thorax 4.17987 -7.13086 10.3924
lowerneck -10.4583 13.8116 3.71582
upperneck 16.9281 21.3677 -13.9485
head 9.00505 9.17046 -2.63275
rclavicle -2.05146e-013 5.88403e-014
rhumerus 15.4276 -17.4048 -76.7609
rradius 89.7067
rwrist -24.5864
rhand -64.1591 29.3564
rfingers 7.12502
rthumb -36.1017 3.06498
lclavicle -2.05146e-013 5.88403e-014
lhumerus 83.2116 -55.5119 63.5708
lradius 22.8773
lwrist -5.0496
lhand -15.8299 12.1945
lfingers 7.12502
lthumb -169.636 -138.081
rfemur -38.6472 -0.462122 18.7953
rtibia 32.5805
rfoot -8.29353 -1.81841
rtoes -9.02495
lfemur -33.4791 14.3654 -7.08765
ltibia 30.3725
lfoot -9.98147 0.648794
ltoes -16.2766
235
root -7.471 17.8584 0.871972 -23.4603 81.4499 -43.7265
lowerback 6.63134 -9.38416 -10.1954
upperback 4.35405 -12.975 4.524
thorax 4.33867 -7.00269 10.4474
lowerneck -10.6624 12.9464 4.25419
upperneck 17.5347 20.2282 -14.1118
head 9.21504 8.61986 -2.91104
rclavicle 6.59965e-014 -4.45278e-014
rhumerus 13.8601 -17.4015 -77.1091
rradius 88.8715
rwrist -26.3655
rhand -64.5014 30.4238
rfingers 7.12502
rthumb -36.4258 4.21302
lclavicle 6.59965e-014 -4.45278e-014
lhumerus 80.7763 -56.5299 65.4428
lradius 22.3399
lwrist -5.50799
lhand -15.3799 13.1676
lfingers 7.12502
lthumb -169.202 -137.13
rfemur -38.1806 -0.986173 18.2708
rtibia 32.6399
rfoot -8.24829 -3.5799
rtoes -10.0988
lfemur -34.1993 13.2287 -7.37843
ltibia 30.1843
lfoot -9.7348 -0.691073
ltoes -16.2899
236
root -7.46823 17.8675 0.786266 -36.1684 83.2711 -56.3742
lowerback 6.32701 -9.16262 -9.36788
upperback 4.50741 -12.6025 4.77491
thorax 4.44225 -6.79841 10.2365
lowerneck -10.6516 11.9592 5.23201
upperneck 18.1128 18.823 -14.2696
head 9.37924 7.9931 -3.31737
rclavicle 3.57812e-014 4.77083e-015
rhumerus 11.8852 -17.7731 -77.491
rradius 88.0798
rwrist -28.3902
rhand -64.4013 29.9891
rfingers 7.12502
rthumb -36.331 3.75459
lclavicle 3.57812e-014 4.77083e-015
lhumerus 79.1252 -57.9452 66.0536
lradius 21.9468
lwrist -5.45871
lhand -15.0363 14.2666
lfingers 7.12502
lthumb -168.87 -136.049
rfemur -37.6653 -1.51508 17.7114
rtibia 32.7421
rfoot -8.13889 -5.48628
rtoes -11.3306
lfemur -34.8641 12.0186 -7.66705
ltibia 29.9028
lfoot -9.46737 -2.20198
ltoes -16.1335
237
root -7.46352 17.8756 0.699193 -57.1643 84.7031 -77.3168
lowerback 5.97331 -9.25335 -8.52886
upperback 4.58757 -12.6577 5.14499
thorax 4.63521 -6.81381 10.1091
lowerneck -10.6955 11.1618 5.41601
upperneck 18.5517 17.7599 -14.2843
head 9.43981 7.49664 -3.51153
rclavicle -3.4191e-014 4.92986e-014
rhumerus 10.2613 -17.1227 -77.8142
rradius 86.8892
rwrist -30.2503
rhand -64.318 28.1345
rfingers 7.12502
rthumb -36.2521 1.88034
lclavicle -3.4191e-014 4.92986e-014
lhumerus 76.7699 -58.5523 67.0945
lradius 21.4131
lwrist -5.49132
lhand -14.6558 15.2582
lfingers 7.12502
lthumb -168.503 -135.077
rfemur -37.1152 -2.08341 16.9879
rtibia 32.9041
rfoot -8.01475 -7.29999
rtoes -11.6627
lfemur -35.4311 10.7228 -8.08911
ltibia 29.4816
lfoot -9.20931 -3.79654
ltoes -16.6761
238
root -7.45418 17.8865 0.615632 -87.0115 85.1183 -107.097
lowerback 5.50653 -9.64996 -7.64497
upperback 4.69178 -13.126 5.63248
thorax 5.03873 -7.04722 10.024
lowerneck -11.0954 10.565 4.61392
upperneck 18.9933 17.0831 -14.0004
head 9.49252 7.12153 -3.37683
rclavicle 6.75868e-014 0
rhumerus 8.95773 -15.5571 -78.4317
rradius 85.5414
rwrist -32.0169
rhand -64.3652 26.4488
rfingers 7.12502
rthumb -36.2968 0.205726
lclavicle 6.75868e-014 0
lhumerus 73.0677 -58.2482 69.5063
lradius 20.6968
lwrist -5.97306
lhand -14.4569 16.708
lfingers 7.12502
lthumb -168.311 -133.638
rfemur -36.4852 -2.63351 16.1834
rtibia 33.1171
rfoot -8.00679 -9.01936
rtoes -10.9681
lfemur -35.8988 9.4194 -8.57859
ltibia 28.9339
lfoot -8.85553 -5.52292
ltoes -17.1075
239
root -7.43944 17.9021 0.531532 -113.904 84.1875 -133.903
lowerback 4.72406 -10.0196 -6.52564
upperback 4.97263 -13.5449 6.002
thorax 5.70181 -7.2439 9.61224
lowerneck -11.9127 9.94857 3.75212
upperneck 19.556 16.3559 -13.4824
head 9.64161 6.71023 -3.13836
rclavicle 1.81292e-013 -6.20208e-014
rhumerus 7.68708 -14.2413 -79.4746
rradius 84.2799
rwrist -33.8662
rhand -64.2416 25.1772
rfingers 7.12502
rthumb -36.1798 -1.09492
lclavicle 1.81292e-013 -6.20208e-014
lhumerus 70.193 -58.0553 70.8013
lradius 20.2076
lwrist -5.74293
lhand -14.5092 18.9519
lfingers 7.12502
lthumb -168.362 -131.391
rfemur -35.773 -3.17999 15.4037
rtibia 33.355
rfoot -8.0332 -10.6031
rtoes -10.2142
lfemur -36.2504 8.12767 -9.06729
ltibia 28.2943
lfoot -8.50285 -7.25399
ltoes -16.7937
